<mxfile host="65bd71144e">
    <diagram id="TXTkAOY1F8iaIVs1cHxm" name="ページ1">
        <mxGraphModel dx="1086" dy="536" grid="1" gridSize="10" guides="1" tooltips="1" connect="1" arrows="1" fold="1" page="1" pageScale="1" pageWidth="827" pageHeight="1169" math="0" shadow="0">
            <root>
                <mxCell id="0"/>
                <mxCell id="1" parent="0"/>
                <mxCell id="3" value="" style="verticalLabelPosition=bottom;verticalAlign=top;html=1;shape=mxgraph.basic.polygon;polyCoords=[[0,0],[0.38,0],[0.5,0.17],[1,0.17],[1,1],[0,1]];polyline=0;fillColor=none;strokeWidth=6;strokeColor=#FFFFFF;" parent="1" vertex="1">
                    <mxGeometry x="40" y="50" width="80" height="60" as="geometry"/>
                </mxCell>
                <mxCell id="4" value="" style="endArrow=none;html=1;rounded=0;strokeWidth=6;strokeColor=#ffffff;" parent="1" edge="1">
                    <mxGeometry width="50" height="50" relative="1" as="geometry">
                        <mxPoint x="65" y="85" as="sourcePoint"/>
                        <mxPoint x="95" y="85" as="targetPoint"/>
                    </mxGeometry>
                </mxCell>
                <mxCell id="5" value="" style="endArrow=none;html=1;rounded=0;strokeWidth=6;strokeColor=#ffffff;" parent="1" edge="1">
                    <mxGeometry width="50" height="50" relative="1" as="geometry">
                        <mxPoint x="80" y="100" as="sourcePoint"/>
                        <mxPoint x="80" y="70" as="targetPoint"/>
                    </mxGeometry>
                </mxCell>
            </root>
        </mxGraphModel>
    </diagram>
</mxfile>